# xmcd
#
# Track frame offsets: 
#        150
#        25862
#        42964
#        61961
#        86334
#        109539
#        127405
#        148862
#        173096
#        191621
#
# Disc length: 2808 seconds
#
# Revision: 1
# Processed by: cddbd v1.5.2PL0 Copyright (c) Steve Scherf et al.
# Submitted via: ExactAudioCopyFreeDBPlugin 1.0
#
DISCID=880af60a
DTITLE=A Taste Of Honey - Another Taste
DYEAR=1979
DGENRE=Soul
TTITLE0=Do It Good
TTITLE1=The Rainbow's End
TTITLE2=Dance
TTITLE3=I Love You
TTITLE4=Race
TTITLE5=Let's Begin
TTITLE6=Take The Boogie Or Leave It
TTITLE7=Your Love
TTITLE8=Do It Good (Single Version)
TTITLE9=I Love You (Single Version)
EXTD=
EXTT0=
EXTT1=
EXTT2=
EXTT3=
EXTT4=
EXTT5=
EXTT6=
EXTT7=
EXTT8=
EXTT9=
PLAYORDER=
